<svg xmlns="http://www.w3.org/2000/svg" xmlns:xlink="http://www.w3.org/1999/xlink" xmlns:inkscape="http://www.inkscape.org/namespaces/inkscape" version="1.1" width="146" height="146" viewBox="0 0 146 146">
<path transform="matrix(1.00003,0,0,-1,2.2955018,143.731)" stroke-width=".79701" stroke-linecap="butt" stroke-miterlimit="10" stroke-linejoin="miter" fill="none" stroke="#0000ff" d="M0 0V141.73404"/>
<path transform="matrix(1.00003,0,0,-1,2.2955018,143.731)" stroke-width=".79701" stroke-linecap="butt" stroke-miterlimit="10" stroke-linejoin="miter" fill="none" stroke="#0000ff" d="M28.3468 0V141.73404"/>
<path transform="matrix(1.00003,0,0,-1,2.2955018,143.731)" stroke-width=".79701" stroke-linecap="butt" stroke-miterlimit="10" stroke-linejoin="miter" fill="none" stroke="#0000ff" d="M56.69362 0V141.73404"/>
<path transform="matrix(1.00003,0,0,-1,2.2955018,143.731)" stroke-width=".79701" stroke-linecap="butt" stroke-miterlimit="10" stroke-linejoin="miter" fill="none" stroke="#0000ff" d="M85.04042 0V141.73404"/>
<path transform="matrix(1.00003,0,0,-1,2.2955018,143.731)" stroke-width=".79701" stroke-linecap="butt" stroke-miterlimit="10" stroke-linejoin="miter" fill="none" stroke="#0000ff" d="M113.38724 0V141.73404"/>
<path transform="matrix(1.00003,0,0,-1,2.2955018,143.731)" stroke-width=".79701" stroke-linecap="butt" stroke-miterlimit="10" stroke-linejoin="miter" fill="none" stroke="#0000ff" d="M141.73404 0V141.73404"/>
<path transform="matrix(1.00003,0,0,-1,2.2955018,143.731)" stroke-width=".79701" stroke-linecap="butt" stroke-miterlimit="10" stroke-linejoin="miter" fill="none" stroke="#0000ff" d="M0 0H141.73404"/>
<path transform="matrix(1.00003,0,0,-1,2.2955018,143.731)" stroke-width=".79701" stroke-linecap="butt" stroke-miterlimit="10" stroke-linejoin="miter" fill="none" stroke="#0000ff" d="M0 28.3468H141.73404"/>
<path transform="matrix(1.00003,0,0,-1,2.2955018,143.731)" stroke-width=".79701" stroke-linecap="butt" stroke-miterlimit="10" stroke-linejoin="miter" fill="none" stroke="#0000ff" d="M0 56.69362H141.73404"/>
<path transform="matrix(1.00003,0,0,-1,2.2955018,143.731)" stroke-width=".79701" stroke-linecap="butt" stroke-miterlimit="10" stroke-linejoin="miter" fill="none" stroke="#0000ff" d="M0 85.04042H141.73404"/>
<path transform="matrix(1.00003,0,0,-1,2.2955018,143.731)" stroke-width=".79701" stroke-linecap="butt" stroke-miterlimit="10" stroke-linejoin="miter" fill="none" stroke="#0000ff" d="M0 113.38724H141.73404"/>
<path transform="matrix(1.00003,0,0,-1,2.2955018,143.731)" stroke-width=".79701" stroke-linecap="butt" stroke-miterlimit="10" stroke-linejoin="miter" fill="none" stroke="#0000ff" d="M0 141.73404H141.73404"/>
</svg>
