<svg xmlns="http://www.w3.org/2000/svg" xmlns:xlink="http://www.w3.org/1999/xlink" xmlns:inkscape="http://www.inkscape.org/namespaces/inkscape" version="1.1" width="71" height="57" viewBox="0 0 71 57">
<defs>
<path id="font_1_107" d="M.44898988 .17396546H.42399598C.4189911 .14398194 .4119873 .099990848 .4019928 .084991458 .394989 .07699585 .32899476 .07699585 .30699159 .07699585H.1269989L.23298645 .17996216C.3889923 .31803895 .44898988 .37210084 .44898988 .47216798 .44898988 .5860901 .35899354 .6660156 .23699951 .6660156 .12399292 .6660156 .049987794 .57411196 .049987794 .48516847 .049987794 .4291687 .099990848 .4291687 .102996829 .4291687 .11999512 .4291687 .15499878 .44117738 .15499878 .48217774 .15499878 .5081787 .13699341 .5341797 .101989749 .5341797 .09399414 .5341797 .09199524 .5341797 .08898926 .5331726 .11199951 .59806826 .1659851 .63500979 .22399903 .63500979 .31498719 .63500979 .35798646 .5541382 .35798646 .47216798 .35798646 .39196778 .30799867 .31297303 .25299073 .25097657L.06098938 .036987306C.049987794 .025985718 .049987794 .023986817 .049987794 0H.42099L.44898988 .17396546Z"/>
<path id="font_1_82" d="M.4189911 0V.0309906H.3869934C.29699708 .0309906 .2939911 .041992189 .2939911 .07902527V.64012148C.2939911 .6640167 .2939911 .6660156 .2709961 .6660156 .20899964 .60227969 .12098694 .60227969 .08898926 .60227969V.57128909C.10899353 .57128909 .16799927 .57128909 .21998596 .5972748V.07902527C.21998596 .042999269 .21699524 .0309906 .1269989 .0309906H.09498596V0C.12998963 .0029907227 .21699524 .0029907227 .25698854 .0029907227 .29699708 .0029907227 .38398744 .0029907227 .4189911 0Z"/>
</defs>
<use data-text="2" xlink:href="#font_1_107" transform="matrix(9.963397,0,0,-9.962799,36.75943,7.5559108)"/>
<path transform="matrix(1.00008,0,0,-1.00002,39.250627,4.237844)" stroke-width=".3985" stroke-linecap="butt" stroke-miterlimit="10" stroke-linejoin="miter" fill="none" stroke="#000000" d="M-19.5418-42.52022C-19.5418-37.6573-23.48387-33.71523-28.34679-33.71523-33.2097-33.71523-37.15178-37.6573-37.15178-42.52022-37.15178-47.38313-33.2097-51.3252-28.34679-51.3252-23.48387-51.3252-19.5418-47.38313-19.5418-42.52022ZM-28.34679-42.52022"/>
<use data-text="2" xlink:href="#font_1_107" transform="matrix(9.963397,0,0,-9.962799,8.411163,50.076768)"/>
<path transform="matrix(1.00008,0,0,-1.00002,39.250627,4.237844)" stroke-width=".3985" stroke-linecap="butt" stroke-miterlimit="10" stroke-linejoin="miter" fill="none" stroke="#000000" d="M-4.55591-6.83742-23.35239-35.02856"/>
<use data-text="1" xlink:href="#font_1_82" transform="matrix(9.963397,0,0,-9.962799,65.108699,50.076768)"/>
<path transform="matrix(1.00008,0,0,-1.00002,39.250627,4.237844)" stroke-width=".3985" stroke-linecap="butt" stroke-miterlimit="10" stroke-linejoin="miter" fill="none" stroke="#000000" d="M4.55653-6.83742 23.79019-35.68279"/>
</svg>
