<svg xmlns="http://www.w3.org/2000/svg" xmlns:xlink="http://www.w3.org/1999/xlink" xmlns:inkscape="http://www.inkscape.org/namespaces/inkscape" version="1.1" width="60" height="60" viewBox="0 0 60 60">
<defs>
<path id="font_1_1" d="M.30099488 .119277957C.29599 .102264408 .29599 .1002655 .28199769 .08125305 .2599945 .053237916 .21598816 .010223389 .16899109 .010223389 .12799073 .010223389 .10499573 .04724121 .10499573 .10626221 .10499573 .1612854 .13598633 .2733307 .15499878 .3153534 .18899536 .38539125 .23599243 .42140199 .2749939 .42140199 .34098817 .42140199 .35398866 .33937074 .35398866 .33135987 .35398866 .33036805 .35099793 .3173523 .34999085 .3153534L.30099488 .119277957M.36499024 .37538148C.35398866 .4013977 .32699586 .44140626 .2749939 .44140626 .1619873 .44140626 .039993287 .29534913 .039993287 .14727783 .039993287 .04824829 .09799194-.009765625 .1659851-.009765625 .22099304-.009765625 .2679901 .033233644 .29599 .06625366 .30599977 .007232666 .35299684-.009765625 .3829956-.009765625 .41299439-.009765625 .43699647 .008224487 .45498658 .04423523 .47099305 .07824707 .4850006 .13926697 .4850006 .14326477 .4850006 .14826966 .48098756 .15226746 .47499085 .15226746 .46598817 .15226746 .46499635 .14726258 .46099855 .13226319 .44599916 .07324219 .4269867 .010223389 .38598634 .010223389 .35699464 .010223389 .35499574 .036239625 .35499574 .056243898 .35499574 .07923889 .35798646 .09025574 .36698915 .1292572 .37399293 .15426636 .3789978 .17626953 .3869934 .20527649 .42399598 .35533143 .43299867 .39134217 .43299867 .39733888 .43299867 .41133119 .42199708 .42233277 .40699769 .42233277 .375 .42233277 .36698915 .3873291 .36499024 .3753357V.37538148Z"/>
<path id="font_1_2" d="M.23098755 .6693268C.23199463 .6733246 .23399353 .6793213 .23399353 .6843262 .23399353 .69433596 .22399903 .69433596 .22200012 .69433596 .22099304 .69433596 .18499756 .69132998 .16699219 .68933108 .1499939 .688324 .1349945 .6863251 .116989139 .68533328 .09298706 .68333438 .085998538 .6823273 .085998538 .6643219 .085998538 .6543274 .09599304 .6543274 .10598755 .6543274 .15699768 .6543274 .15699768 .6453247 .15699768 .6353302 .15699768 .6283417 .14898682 .59935 .14498902 .58135989L.12098694 .48538209C.11099243 .44540406 .053985597 .2183075 .049987794 .20030213 .04499817 .17529297 .04499817 .15829468 .04499817 .14527893 .04499817 .04324341 .101989749-.009765625 .16699219-.009765625 .2829895-.009765625 .40299989 .13928223 .40299989 .28434754 .40299989 .3763733 .35099793 .44140626 .27598573 .44140626 .22399903 .44140626 .1769867 .39839173 .1579895 .37838746L.23098755 .6693268M.16799927 .010223389C.13598633 .010223389 .100997928 .034240724 .100997928 .11227417 .100997928 .14527893 .10398865 .16429138 .12199402 .23431397 .125 .24732971 .14099121 .3113556 .14498902 .32435609 .14698792 .33236695 .20599365 .42140199 .27398683 .42140199 .31799317 .42140199 .33799745 .37738038 .33799745 .32536317 .33799745 .27734376 .30999757 .16429138 .2849884 .11227417 .2599945 .058242799 .21398926 .010223389 .16799927 .010223389Z"/>
</defs>
<path transform="matrix(1,0,0,-1,30.442002,30.146)" stroke-width=".3985" stroke-linecap="butt" stroke-miterlimit="10" stroke-linejoin="miter" fill="none" stroke="#000000" d="M28.3468 0C28.3468 15.6557 15.6557 28.3468 0 28.3468-15.6557 28.3468-28.3468 15.6557-28.3468 0-28.3468-15.6557-15.6557-28.3468 0-28.3468 15.6557-28.3468 28.3468-15.6557 28.3468 0ZM0 0"/>
<path transform="matrix(1,0,0,-1,30.442002,30.146)" stroke-width=".3985" stroke-linecap="butt" stroke-miterlimit="10" stroke-linejoin="miter" fill="none" stroke="#000000" d="M-28.3468 0H28.3468"/>
<path transform="matrix(1,0,0,-1,30.442002,30.146)" d="M0 0H28.3468C28.3468-15.6557 15.6557-28.3468 0-28.3468Z" fill="#00ff00"/>
<path transform="matrix(1,0,0,-1,30.442002,30.146)" d="M0 0V28.3468C-7.51663 28.3468-14.72916 25.3593-20.04422 20.04422Z" fill="#00ff00"/>
<use data-text="a" xlink:href="#font_1_1" transform="matrix(11.9552,0,0,-11.9552,18.865006,15.7109999)"/>
<use data-text="b" xlink:href="#font_1_2" transform="matrix(11.9552,0,0,-11.9552,42.127,48.471)"/>
<path transform="matrix(1,0,0,-1,30.442002,30.146)" stroke-width=".3985" stroke-linecap="butt" stroke-miterlimit="10" stroke-linejoin="miter" fill="none" stroke="#000000" d="M0 28.3468V-28.3468"/>
<path transform="matrix(1,0,0,-1,30.442002,30.146)" stroke-width=".3985" stroke-linecap="butt" stroke-miterlimit="10" stroke-linejoin="miter" fill="none" stroke="#000000" d="M-20.1264 20.1264 20.1264-20.1264"/>
<path transform="matrix(1,0,0,-1,30.442002,30.146)" stroke-width=".3985" stroke-linecap="butt" stroke-miterlimit="10" stroke-linejoin="miter" fill="none" stroke="#000000" d="M-20.1264-20.1264 20.1264 20.1264"/>
</svg>
