<svg xmlns="http://www.w3.org/2000/svg" xmlns:xlink="http://www.w3.org/1999/xlink" xmlns:inkscape="http://www.inkscape.org/namespaces/inkscape" version="1.1" width="117" height="116" viewBox="0 0 117 116">
<defs>
<path id="font_1_1" d="M.31399537 .63708499C.31399537 .664032 .31199647 .66503909 .2849884 .66503909 .24398804 .6251831 .19099427 .6013489 .09599304 .6013489V.5683594C.12298584 .5683594 .1769867 .5683594 .23498535 .5953522V.08203125C.23498535 .04499817 .23199463 .032989503 .13699341 .032989503H.101989749V0C.14299011 .0029907227 .22898865 .0029907227 .27398683 .0029907227 .31900025 .0029907227 .4059906 .0029907227 .44699098 0V.032989503H.4119873C.31698609 .032989503 .31399537 .04499817 .31399537 .08203125V.63708499Z"/>
<path id="font_1_2" d="M.28199769 .20405579C.2979889 .21907044 .33999635 .2520752 .35598756 .26608277 .41799928 .32312013 .47698976 .3781433 .47698976 .46917726 .47698976 .588089 .3769989 .66503909 .2519989 .66503909 .13198853 .66503909 .052993776 .57411196 .052993776 .48516847 .052993776 .4361725 .09199524 .4291687 .10598755 .4291687 .1269989 .4291687 .1579895 .4441681 .1579895 .48217774 .1579895 .5341797 .10798645 .5341797 .09599304 .5341797 .125 .6070709 .19198609 .6320343 .24099732 .6320343 .33399964 .6320343 .38198854 .55314639 .38198854 .46917726 .38198854 .36514283 .30899049 .28910829 .19099427 .16804505L.06498718 .037994386C.052993776 .026992798 .052993776 .024993897 .052993776 0H.44799806L.47698976 .17904663H.44599916C.44299317 .1590271 .43499757 .10900879 .4229889 .08999634 .4169922 .08198547 .34098817 .08198547 .32499696 .08198547H.14698792L.28199769 .20405579Z"/>
</defs>
<path transform="matrix(1.00002,0,0,-1,58.59079,58.128)" d="M-56.69362 0C-56.69362-31.31142-31.3114-56.69363 0-56.69363 31.31143-56.69363 56.69365-31.31142 56.69365 0H0Z" fill="#ff8000"/>
<path transform="matrix(1.00002,0,0,-1,58.59079,58.128)" d="M0 0H56.69362C56.69362 31.31142 31.3114 56.69363 0 56.69363-31.31143 56.69363-56.69365 31.31142-56.69365 0Z" fill="#ff8000"/>
<path transform="matrix(1.00002,0,0,-1,58.59079,58.128)" stroke-width="5.66934" stroke-linecap="butt" stroke-miterlimit="10" stroke-linejoin="miter" fill="none" stroke="#ffffff" d="M0-56.69362V56.69362"/>
<use data-text="1" xlink:href="#font_1_1" transform="matrix(7.9702599,0,0,-7.9701,84.82033,56.28)"/>
<path transform="matrix(1.00002,0,0,-1,-55.9675,15.86)" stroke-width=".4782" stroke-linecap="butt" stroke-miterlimit="10" stroke-linejoin="miter" fill="none" stroke="#000000" d="M140.785-42.139H145.019"/>
<use data-text="2" xlink:href="#font_1_2" transform="matrix(7.9702599,0,0,-7.9701,84.82033,65.11)"/>
<use data-text="1" xlink:href="#font_1_1" transform="matrix(7.9702599,0,0,-7.9701,28.12619,56.28)"/>
<path transform="matrix(1.00002,0,0,-1,-112.66164,15.86)" stroke-width=".4782" stroke-linecap="butt" stroke-miterlimit="10" stroke-linejoin="miter" fill="none" stroke="#000000" d="M140.785-42.139H145.019"/>
<use data-text="2" xlink:href="#font_1_2" transform="matrix(7.9702599,0,0,-7.9701,28.12619,65.11)"/>
</svg>
